<svg width="169" height="35" viewBox="0 0 169 35" fill="none" xmlns="http://www.w3.org/2000/svg">
<path d="M0.300781 34L3.28906 3.0625H13.7832L16.7188 34H10.8652L10.4258 29.0078H6.69922L6.3125 34H0.300781ZM7.13867 24.0684H9.95117L8.59766 8.33594H8.31641L7.13867 24.0684ZM18.5117 34V7.63281H24.8047V10.9902C25.0391 9.98242 25.4727 9.12695 26.1055 8.42383C26.75 7.70898 27.6406 7.35156 28.7773 7.35156C30.6055 7.35156 31.9297 7.91406 32.75 9.03906C33.582 10.1641 33.998 11.7051 33.998 13.6621V34H27.793V14.3125C27.793 13.7969 27.6875 13.3223 27.4766 12.8887C27.2656 12.4434 26.9023 12.2207 26.3867 12.2207C25.9062 12.2207 25.5488 12.3906 25.3145 12.7305C25.0918 13.0586 24.9512 13.4746 24.8926 13.9785C24.834 14.4707 24.8047 14.9629 24.8047 15.4551V34H18.5117ZM36.4414 6.01562V0.777344H42.7344V6.01562H36.4414ZM36.4414 34V7.63281H42.7344V34H36.4414ZM45.2305 34V7.63281H51.3828V10.6914C51.6641 9.61328 52.1445 8.78711 52.8242 8.21289C53.5039 7.63867 54.5 7.35156 55.8125 7.35156C56.8672 7.35156 57.7637 7.59766 58.502 8.08984C59.252 8.57031 59.7793 9.20898 60.084 10.0059C60.5645 9.13867 61.127 8.48242 61.7715 8.03711C62.4277 7.58008 63.3594 7.35156 64.5664 7.35156C66.0312 7.35156 67.1562 7.66797 67.9414 8.30078C68.7383 8.92187 69.2891 9.78906 69.5938 10.9023C69.9102 12.0039 70.0684 13.2812 70.0684 14.7344V34H63.793V14.6289C63.793 12.9297 63.3594 12.0801 62.4922 12.0801C62.0352 12.0801 61.6836 12.2383 61.4375 12.5547C61.1914 12.8594 61.0215 13.2402 60.9277 13.6973C60.834 14.1543 60.7871 14.6113 60.7871 15.0684V34H54.5117V14.6289C54.5117 14.0781 54.4414 13.5273 54.3008 12.9766C54.1719 12.4258 53.832 12.1504 53.2812 12.1504C52.8125 12.1504 52.4492 12.3203 52.1914 12.6602C51.9336 13 51.7578 13.4219 51.6641 13.9258C51.5703 14.418 51.5234 14.9043 51.5234 15.3848V34H45.2305ZM79.9297 34.2812C78.0547 34.2812 76.5605 33.9297 75.4473 33.2266C74.334 32.5234 73.5371 31.5098 73.0566 30.1855C72.5762 28.8613 72.3359 27.2676 72.3359 25.4043V14.8047C72.3359 12.3555 73.0391 10.5039 74.4453 9.25C75.8516 7.98438 77.7852 7.35156 80.2461 7.35156C85.3086 7.35156 87.8398 9.83594 87.8398 14.8047V16.7207C87.8398 19.041 87.8164 20.5996 87.7695 21.3965H78.6289V26.4941C78.6289 26.9629 78.6582 27.4258 78.7168 27.8828C78.7754 28.3281 78.9043 28.6973 79.1035 28.9902C79.3145 29.2832 79.6484 29.4297 80.1055 29.4297C80.7617 29.4297 81.1719 29.1484 81.3359 28.5859C81.5 28.0117 81.582 27.2676 81.582 26.3535V23.8223H87.8398V25.3164C87.8398 27.2852 87.5938 28.9375 87.1016 30.2734C86.6211 31.5977 85.8008 32.5996 84.6406 33.2793C83.4922 33.9473 81.9219 34.2812 79.9297 34.2812ZM78.5938 18.2676H81.582V14.7168C81.582 13.7676 81.4648 13.0879 81.2305 12.6777C80.9961 12.2559 80.6445 12.0449 80.1758 12.0449C79.6719 12.0449 79.2793 12.2441 78.998 12.6426C78.7285 13.041 78.5938 13.7324 78.5938 14.7168V18.2676ZM97.4375 34.2812C95.1992 34.2812 93.3945 33.584 92.0234 32.1895C90.6641 30.7949 89.9844 28.8438 89.9844 26.3359V12.0625C89.9844 9.0625 90.5762 6.76563 91.7598 5.17188C92.9551 3.57812 94.8945 2.78125 97.5781 2.78125C99.043 2.78125 100.344 3.05078 101.48 3.58984C102.629 4.12891 103.531 4.9375 104.188 6.01562C104.844 7.08203 105.172 8.42969 105.172 10.0586V15.4023H99.0195V10.832C99.0195 9.90625 98.9023 9.28516 98.668 8.96875C98.4336 8.64062 98.0703 8.47656 97.5781 8.47656C97.0039 8.47656 96.6172 8.6875 96.418 9.10938C96.2188 9.51953 96.1191 10.0703 96.1191 10.7617V26.248C96.1191 27.1035 96.2422 27.707 96.4883 28.0586C96.7461 28.4102 97.1094 28.5859 97.5781 28.5859C98.1055 28.5859 98.4746 28.3691 98.6855 27.9355C98.9082 27.502 99.0195 26.9395 99.0195 26.248V20.6758H105.242V26.5293C105.242 29.248 104.557 31.2227 103.186 32.4531C101.814 33.6719 99.8984 34.2812 97.4375 34.2812ZM114.875 34.2812C109.625 34.2812 107 31.5566 107 26.1074V15.5254C107 13.041 107.697 11.0605 109.092 9.58398C110.486 8.0957 112.414 7.35156 114.875 7.35156C117.348 7.35156 119.281 8.0957 120.676 9.58398C122.07 11.0605 122.768 13.041 122.768 15.5254V26.1074C122.768 31.5566 120.137 34.2812 114.875 34.2812ZM114.875 29.4297C115.402 29.4297 115.777 29.2422 116 28.8672C116.234 28.4805 116.352 27.9941 116.352 27.4082V14.5234C116.352 12.9883 115.859 12.2207 114.875 12.2207C113.891 12.2207 113.398 12.9883 113.398 14.5234V27.4082C113.398 27.9941 113.51 28.4805 113.732 28.8672C113.967 29.2422 114.348 29.4297 114.875 29.4297ZM125.105 34V7.63281H131.258V10.6914C131.539 9.61328 132.02 8.78711 132.699 8.21289C133.379 7.63867 134.375 7.35156 135.688 7.35156C136.742 7.35156 137.639 7.59766 138.377 8.08984C139.127 8.57031 139.654 9.20898 139.959 10.0059C140.439 9.13867 141.002 8.48242 141.646 8.03711C142.303 7.58008 143.234 7.35156 144.441 7.35156C145.906 7.35156 147.031 7.66797 147.816 8.30078C148.613 8.92187 149.164 9.78906 149.469 10.9023C149.785 12.0039 149.943 13.2812 149.943 14.7344V34H143.668V14.6289C143.668 12.9297 143.234 12.0801 142.367 12.0801C141.91 12.0801 141.559 12.2383 141.312 12.5547C141.066 12.8594 140.896 13.2402 140.803 13.6973C140.709 14.1543 140.662 14.6113 140.662 15.0684V34H134.387V14.6289C134.387 14.0781 134.316 13.5273 134.176 12.9766C134.047 12.4258 133.707 12.1504 133.156 12.1504C132.688 12.1504 132.324 12.3203 132.066 12.6602C131.809 13 131.633 13.4219 131.539 13.9258C131.445 14.418 131.398 14.9043 131.398 15.3848V34H125.105ZM162.951 34.2812C161.92 34.2812 161.082 34.0293 160.438 33.5254C159.793 33.0098 159.277 32.2305 158.891 31.1875V34H152.492V3.0625H158.891V10.4453C159.277 9.47266 159.811 8.7168 160.49 8.17773C161.182 7.62695 162.166 7.35156 163.443 7.35156C165.166 7.35156 166.379 7.97852 167.082 9.23242C167.797 10.4863 168.154 12.127 168.154 14.1543V27.127C168.154 28.4746 167.967 29.6934 167.592 30.7832C167.229 31.8613 166.66 32.7168 165.887 33.3496C165.125 33.9707 164.146 34.2812 162.951 34.2812ZM160.35 29.377C161.018 29.377 161.422 29.0488 161.562 28.3926C161.703 27.7363 161.773 26.9277 161.773 25.9668V15.666C161.773 14.6934 161.703 13.8848 161.562 13.2402C161.422 12.584 161.023 12.2559 160.367 12.2559C159.688 12.2559 159.271 12.5898 159.119 13.2578C158.967 13.9141 158.891 14.7168 158.891 15.666V25.9668C158.891 26.916 158.967 27.7246 159.119 28.3926C159.271 29.0488 159.682 29.377 160.35 29.377Z" fill="#D9D9D9"/>
</svg>
